<svg xmlns="http://www.w3.org/2000/svg" viewBox="0 0 375.41 85.42"><defs><style>.cls-1{fill:#1a1a1a;}.cls-2{fill:#004ac1;}.cls-3{fill:#0059db;}</style></defs><g id="레이어_2" data-name="레이어 2"><g id="Layer_1" data-name="Layer 1"><path class="cls-1" d="M143.48,55.22,156.08,19h9.77l-17,44.49h-11L121,19h9.85Z"/><path class="cls-1" d="M187.37,20.13a15.8,15.8,0,0,1,7.95-1.9v9.53H193q-5.41,0-8.2,2.75T182,40V63.45h-9.21V19H182v6.46A14.34,14.34,0,0,1,187.37,20.13Z"/><path class="cls-1" d="M204.29,11.37a5.71,5.71,0,0,1-1.7-4.2,5.81,5.81,0,0,1,5.89-5.9A5.61,5.61,0,0,1,212.6,3a5.71,5.71,0,0,1,1.7,4.2,5.71,5.71,0,0,1-1.7,4.2,5.6,5.6,0,0,1-4.12,1.69A5.69,5.69,0,0,1,204.29,11.37ZM213,19V63.45H203.8V19Z"/><path class="cls-1" d="M224.84,29.13a20.32,20.32,0,0,1,18.29-10.9,20.79,20.79,0,0,1,8.6,1.9,17.52,17.52,0,0,1,6.74,5.05V3.69h9.29V63.45h-9.29v-6.7a17.26,17.26,0,0,1-6.26,5.33,19.39,19.39,0,0,1-9.16,2.1,19.86,19.86,0,0,1-10.62-3A20.76,20.76,0,0,1,224.84,53a25.35,25.35,0,0,1-2.79-12A24.63,24.63,0,0,1,224.84,29.13Zm31.73,4a13.36,13.36,0,0,0-5-5.17A13.07,13.07,0,0,0,245,26.22a13,13,0,0,0-11.59,6.83,15.8,15.8,0,0,0-1.9,8,16.55,16.55,0,0,0,1.9,8.08,13.38,13.38,0,0,0,5,5.29A12.89,12.89,0,0,0,245,56.19a13.07,13.07,0,0,0,6.62-1.78,13.21,13.21,0,0,0,5-5.21,16.3,16.3,0,0,0,1.9-8A16.08,16.08,0,0,0,256.57,33.17Z"/><path class="cls-1" d="M307,20.29a17.48,17.48,0,0,1,6.25,5.13V19h9.29V64.18a22.75,22.75,0,0,1-2.58,10.94,18.72,18.72,0,0,1-7.47,7.55,23.48,23.48,0,0,1-11.67,2.75q-9,0-15-4.24A15.64,15.64,0,0,1,279,69.67h9.13a9.85,9.85,0,0,0,4.48,5.61,15.16,15.16,0,0,0,8.2,2.14,12.26,12.26,0,0,0,9-3.39q3.43-3.39,3.43-9.85V56.75a19.13,19.13,0,0,1-15.42,7.43,19.86,19.86,0,0,1-10.62-3A20.83,20.83,0,0,1,279.59,53a25.35,25.35,0,0,1-2.79-12,24.63,24.63,0,0,1,2.79-11.87,20.31,20.31,0,0,1,18.21-10.9A19.82,19.82,0,0,1,307,20.29Zm4.36,12.88a13.39,13.39,0,0,0-5-5.17,13,13,0,0,0-6.62-1.78,13.08,13.08,0,0,0-11.59,6.83,15.8,15.8,0,0,0-1.9,8,16.55,16.55,0,0,0,1.9,8.08,13.34,13.34,0,0,0,5,5.29,12.83,12.83,0,0,0,6.58,1.82,13,13,0,0,0,6.62-1.78,13.23,13.23,0,0,0,5-5.21,16.41,16.41,0,0,0,1.89-8A16.18,16.18,0,0,0,311.33,33.17Z"/><path class="cls-1" d="M375.08,44.64h-34a12.35,12.35,0,0,0,4,8.56,12.51,12.51,0,0,0,8.72,3.23c5,0,8.45-2.07,10.5-6.22h9.93a20,20,0,0,1-7.3,10,21.42,21.42,0,0,1-13.13,3.92,22.71,22.71,0,0,1-11.42-2.87,20.36,20.36,0,0,1-7.92-8.07,24.64,24.64,0,0,1-2.86-12.07,25.19,25.19,0,0,1,2.78-12.08,19.61,19.61,0,0,1,7.83-8,23.28,23.28,0,0,1,11.59-2.83A22.7,22.7,0,0,1,365,21a19.42,19.42,0,0,1,7.67,7.71,23.23,23.23,0,0,1,2.75,11.43A28.27,28.27,0,0,1,375.08,44.64Zm-9.28-7.43a10.51,10.51,0,0,0-3.64-8.16,13,13,0,0,0-8.8-3.07,11.82,11.82,0,0,0-8.16,3,12.71,12.71,0,0,0-4,8.2Z"/><path class="cls-2" d="M27.7,79a9,9,0,0,1-8.63-6.45L.3,9.16A7.13,7.13,0,0,1,7.14,0H39.56a7.14,7.14,0,0,1,6.9,8.94L35.61,50.36a4.45,4.45,0,0,0,4.3,5.58h1.24V79Z"/><path class="cls-3" d="M54.65,5.29,49,26.65a4.45,4.45,0,0,0,2.42,5.19l9.12,4.24a4.45,4.45,0,0,1,.43,7.84l-19.78,12L35,79H72.73a9,9,0,0,0,8.64-6.45L100.14,9.16A7.14,7.14,0,0,0,93.3,0H61.54A7.14,7.14,0,0,0,54.65,5.29Z"/></g></g></svg>